# xmcd CD database file
#
# Track frame offsets:
#	150
#	15382
#	33910
#	48965
#	69655
#	86217
#	98565
#	112720
#	129075
#	145527
#	167995
#	180327
#	200400
#	223325
#	236387
#	256727
#	278867
#
# Disc length: 3877 seconds
#
# Revision: 1
# Processed by: cddbd v1.5.2PL0 Copyright (c) Steve Scherf et al.
# Submitted via: Kat CD Ripper 
#
DISCID=da0f2311
DTITLE=Buddy Greco - Route 66
DYEAR=1900
DGENRE=Jazz
TTITLE0=Gee Baby Ain't I Good To You
TTITLE1=Route 66
TTITLE2=Nature Boy
TTITLE3=I'm Lost
TTITLE4=Sweet Lorraine
TTITLE5=Straighten Up and Fly Right
TTITLE6=What is This Thing Called Love
TTITLE7=Lush Life
TTITLE8=Smile
TTITLE9=It's Only a Paper Moon/Too Marvellous For Words/Pick Yourself Up/Unforgettable
TTITLE10=Walkin' My Baby Back Home
TTITLE11=That's All
TTITLE12=Moonlight In Vermont
TTITLE13=Sweet Georgia Brown
TTITLE14=But Not For Me
TTITLE15=When I Fall In Love
TTITLE16=L-O-V-E
EXTD=
EXTT0=
EXTT1=
EXTT2=
EXTT3=
EXTT4=
EXTT5=
EXTT6=
EXTT7=
EXTT8=
EXTT9=
EXTT10=
EXTT11=
EXTT12=
EXTT13=
EXTT14=
EXTT15=
EXTT16=
PLAYORDER=
